<?xml version="1.0" encoding="utf-8"?>
<!-- Generator: Adobe Illustrator 15.1.0, SVG Export Plug-In . SVG Version: 6.00 Build 0)  -->
<!DOCTYPE svg PUBLIC "-//W3C//DTD SVG 1.1//EN" "http://www.w3.org/Graphics/SVG/1.1/DTD/svg11.dtd">
<svg version="1.1" id="Layer_1" xmlns="http://www.w3.org/2000/svg" xmlns:xlink="http://www.w3.org/1999/xlink" x="0px" y="0px"
	 width="531.294px" height="123.969px" viewBox="0 0 531.294 123.969" enable-background="new 0 0 531.294 123.969"
	 xml:space="preserve">
<g>
	<g>
		<g>
			<path fill="#2DABE2" d="M0,106.259C0,47.668,47.668,0,106.259,0s106.259,47.668,106.259,106.259c0,9.781-7.929,17.71-17.71,17.71
				c-9.78,0-17.71-7.929-17.71-17.71c0-39.061-31.777-70.839-70.839-70.839c-39.061,0-70.839,31.778-70.839,70.839
				c0,9.781-7.93,17.71-17.71,17.71C7.929,123.969,0,116.04,0,106.259z"/>
		</g>
		<g>
			<path fill="#2DABE2" d="M318.776,17.71c0-9.781,7.929-17.71,17.71-17.71s17.71,7.929,17.71,17.71
				c0,39.061,31.778,70.839,70.839,70.839s70.839-31.778,70.839-70.839c0-9.781,7.929-17.71,17.71-17.71s17.71,7.929,17.71,17.71
				c0,58.591-47.667,106.259-106.259,106.259C366.444,123.969,318.776,76.301,318.776,17.71z"/>
		</g>
		<g>
			<path fill="#2DABE2" d="M247.938,106.259V17.71c0-9.781,7.929-17.71,17.71-17.71c9.78,0,17.71,7.929,17.71,17.71v88.549
				c0,9.781-7.93,17.71-17.71,17.71C255.866,123.969,247.938,116.04,247.938,106.259z"/>
		</g>
	</g>
</g>
</svg>
